<svg width="39" height="40" viewBox="0 0 39 40" fill="none" xmlns="http://www.w3.org/2000/svg">
<rect width="39" height="40" rx="6" fill="#D6FFD6"/>
<path d="M22.1285 21.9478C22.1285 21.2881 21.7367 20.8346 20.8915 20.5253C20.273 20.2985 20.005 20.1542 20.005 19.8656C20.005 19.6182 20.2318 19.412 20.6853 19.412C21.1595 19.412 21.4894 19.5357 21.6749 19.6388L21.9223 18.7729C21.7161 18.6699 21.4481 18.5874 21.0976 18.5462V17.8452H19.8813V18.6699C19.2834 18.8966 18.9329 19.3708 18.9329 19.9481C18.9329 20.6284 19.4483 21.082 20.2318 21.35C20.809 21.5561 21.0358 21.7211 21.0358 22.0097C21.0358 22.3189 20.7678 22.5251 20.2936 22.5251C19.8401 22.5251 19.3865 22.3808 19.0979 22.2365L18.8711 23.123C19.0773 23.2467 19.469 23.3497 19.8813 23.391V24.0713H21.0976V23.2879C21.7986 23.0611 22.1285 22.5457 22.1285 21.9478Z" fill="#8DCB8D"/>
<path d="M9.94482 15.5366V26.4632H31.0352V15.5366H9.94482ZM14.0475 24.9582H11.5735V22.4843H12.0683V24.4634H14.0475V24.9582ZM14.0475 17.5158H12.0683V19.4949H11.5735V17.021H14.0475V17.5158ZM20.5003 24.9582C18.315 24.9582 16.5214 23.1852 16.5214 20.9793C16.5214 18.794 18.2944 17.0004 20.5003 17.0004C22.7063 17.0004 24.4793 18.7734 24.4793 20.9793C24.4793 23.1852 22.6856 24.9582 20.5003 24.9582ZM29.6745 24.9582H27.2006V24.4634H29.1797V22.4843H29.6745V24.9582ZM29.6745 19.4949H29.1797V17.5158H27.2006V17.021H29.6745V19.4949Z" fill="#8DCB8D"/>
<path d="M30.0455 14.5264H8.95508V25.3293H9.44987V15.0418H30.0455V14.5264Z" fill="#8DCB8D"/>
<path d="M29.0557 13.5366H7.96533V24.3395H8.46012V14.0314H29.0557V13.5366Z" fill="#8DCB8D"/>
</svg>
