<svg width="39" height="40" viewBox="0 0 39 40" fill="none" xmlns="http://www.w3.org/2000/svg">
<rect width="39" height="40" rx="6" fill="#D6FFD6"/>
<path d="M27.8579 29.1758C27.4799 27.059 25.9678 25.3201 24.0022 24.7909C23.0194 24.5641 22.339 23.6569 22.2634 22.5985C23.1706 21.8425 23.851 20.6329 24.0022 19.272C24.0022 19.0452 24.0022 18.8184 23.851 18.6672C23.6998 18.516 23.473 18.4404 23.2462 18.4404C21.8853 18.4404 20.6757 17.6844 19.9953 16.5504C19.8441 16.3236 19.6173 16.1724 19.3149 16.1724H15.7616C15.308 16.1724 15.0056 16.4748 15.0056 16.9284V18.4404C15.0056 20.1036 15.686 21.6157 16.82 22.5985C16.6688 23.6569 15.9884 24.5641 14.93 24.8665C13.04 25.3957 11.6035 27.059 11.1499 29.1758C11.0743 29.5538 11.1499 29.8562 11.3767 30.1586C11.6791 30.3854 11.9815 30.5366 12.3596 30.5366H26.7994C27.1018 30.5366 27.4043 30.3854 27.6311 30.1586C27.7823 29.8562 27.9335 29.5538 27.8579 29.1758Z" fill="#8DCB8D"/>
<path d="M25.59 16.1725H25.4388V16.0213C25.4388 14.6605 24.9852 13.4509 24.2292 12.3924L23.7 14.2825C23.6244 14.5849 23.322 14.8117 22.944 14.8117C22.8684 14.8117 22.7928 14.8117 22.7172 14.8117C22.3392 14.6605 22.1124 14.2825 22.188 13.9045L23.0952 10.8048C23.0952 10.578 22.944 10.3512 22.7172 10.2C20.7516 9.21719 18.4079 9.21719 16.4423 10.2C16.2155 10.3512 16.0643 10.578 16.0643 10.8048L16.9715 13.9045C17.1227 14.2825 16.8203 14.7361 16.4423 14.8117C16.3667 14.8117 16.2911 14.8117 16.2155 14.8117C15.9131 14.8117 15.6106 14.5849 15.4594 14.2825L14.9302 12.3924C14.1742 13.4509 13.7206 14.6605 13.7206 16.0213V16.1725H13.4938C13.0402 16.1725 12.7378 16.4749 12.7378 16.9285C12.7378 17.3821 13.0402 17.6846 13.4938 17.6846H25.59C26.0437 17.6846 26.3461 17.3821 26.3461 16.9285C26.3461 16.4749 26.0437 16.1725 25.59 16.1725Z" fill="#8DCB8D"/>
</svg>
