<svg width="39" height="40" viewBox="0 0 39 40" fill="none" xmlns="http://www.w3.org/2000/svg">
<rect width="39" height="40" rx="6" fill="#D6FFD6"/>
<path d="M12.9051 13.3857L18.4589 15.0722L18.7363 14.1588L12.7864 12.3521L10.1421 13.878L10.6192 14.7048L12.9051 13.3857Z" fill="#8DCB8D"/>
<path d="M12.9051 15.0703L18.4589 16.7568L18.7363 15.8434L12.7864 14.0366L10.1421 15.5626L10.6192 16.3893L12.9051 15.0703Z" fill="#8DCB8D"/>
<path d="M12.9051 16.7548L18.4589 18.4414L18.7363 17.5279L12.7864 15.7212L10.1421 17.2471L10.6192 18.0739L12.9051 16.7548Z" fill="#8DCB8D"/>
<path d="M12.9051 18.4394L18.4589 20.1259L18.7363 19.2125L12.7864 17.4058L10.1421 18.9317L10.6192 19.7585L12.9051 18.4394Z" fill="#8DCB8D"/>
<path d="M12.9051 20.124L18.4589 21.8105L18.7363 20.8971L12.7864 19.0903L10.1421 20.6162L10.6192 21.443L12.9051 20.124Z" fill="#8DCB8D"/>
<path d="M12.9051 21.8086L18.4589 23.4951L18.7363 22.5817L12.7864 20.7749L10.1421 22.3008L10.6192 23.1276L12.9051 21.8086Z" fill="#8DCB8D"/>
<path d="M12.9051 23.4931L18.4589 25.1797L18.7363 24.2662L12.7864 22.4595L10.1421 23.9854L10.6192 24.8121L12.9051 23.4931Z" fill="#8DCB8D"/>
<path d="M12.9051 25.1777L18.4589 26.8642L18.7363 25.9508L12.7864 24.144L10.1421 25.6699L10.6192 26.4967L12.9051 25.1777Z" fill="#8DCB8D"/>
<path d="M21.9778 13.3857L27.5317 15.0722L27.809 14.1588L21.8591 12.3521L19.2148 13.878L19.6919 14.7048L21.9778 13.3857Z" fill="#8DCB8D"/>
<path d="M21.9778 11.7011L27.5317 13.3877L27.809 12.4742L21.8591 10.6675L19.2148 12.1934L19.6919 13.0202L21.9778 11.7011Z" fill="#8DCB8D"/>
<path d="M21.9778 10.0166L27.5317 11.7031L27.809 10.7897L21.8591 8.98291L19.2148 10.5089L19.6919 11.3356L21.9778 10.0166Z" fill="#8DCB8D"/>
<path d="M21.9778 15.0703L27.5317 16.7568L27.809 15.8434L21.8591 14.0366L19.2148 15.5626L19.6919 16.3893L21.9778 15.0703Z" fill="#8DCB8D"/>
<path d="M21.9778 16.7548L27.5317 18.4414L27.809 17.5279L21.8591 15.7212L19.2148 17.2471L19.6919 18.0739L21.9778 16.7548Z" fill="#8DCB8D"/>
<path d="M21.9778 18.4394L27.5317 20.1259L27.809 19.2125L21.8591 17.4058L19.2148 18.9317L19.6919 19.7585L21.9778 18.4394Z" fill="#8DCB8D"/>
<path d="M21.9778 20.124L27.5317 21.8105L27.809 20.8971L21.8591 19.0903L19.2148 20.6162L19.6919 21.443L21.9778 20.124Z" fill="#8DCB8D"/>
<path d="M21.9778 21.8086L27.5317 23.4951L27.809 22.5817L21.8591 20.7749L19.2148 22.3008L19.6919 23.1276L21.9778 21.8086Z" fill="#8DCB8D"/>
<path d="M21.9778 23.4931L27.5317 25.1797L27.809 24.2662L21.8591 22.4595L19.2148 23.9854L19.6919 24.8121L21.9778 23.4931Z" fill="#8DCB8D"/>
<path d="M21.9778 25.1777L27.5317 26.8642L27.809 25.9508L21.8591 24.144L19.2148 25.6699L19.6919 26.4967L21.9778 25.1777Z" fill="#8DCB8D"/>
<path d="M27.5421 30.1046V28.5148L27.8091 27.6354L21.8592 25.8286L19.2149 27.3545L19.482 27.8172V30.1046H18.4698V28.5148L18.7369 27.6354L12.787 25.8286L10.1427 27.3545L10.4097 27.8172V30.1046H8.99951V31.0175H30.0005V30.1046H27.5421ZM14.159 30.1046V28.1637L17.0744 28.8634V30.1046H14.159ZM23.2313 30.1046V28.1637L26.1468 28.8634V30.1046H23.2313Z" fill="#8DCB8D"/>
</svg>
