<svg width="39" height="40" viewBox="0 0 39 40" fill="none" xmlns="http://www.w3.org/2000/svg">
<rect width="39" height="40" rx="6" fill="#D6FFD6"/>
<path d="M15.75 20.8333C15.0083 20.8333 14.2833 20.6134 13.6666 20.2013C13.0499 19.7893 12.5693 19.2036 12.2855 18.5184C12.0016 17.8332 11.9274 17.0792 12.0721 16.3517C12.2167 15.6243 12.5739 14.9561 13.0983 14.4317C13.6228 13.9072 14.291 13.5501 15.0184 13.4054C15.7458 13.2607 16.4998 13.335 17.1851 13.6188C17.8703 13.9026 18.456 14.3833 18.868 14.9999C19.2801 15.6166 19.5 16.3417 19.5 17.0833C19.4989 18.0776 19.1035 19.0307 18.4004 19.7338C17.6974 20.4368 16.7442 20.8322 15.75 20.8333ZM21.1667 30H10.3333C10.1123 30 9.90036 29.9122 9.74408 29.7559C9.5878 29.5996 9.5 29.3877 9.5 29.1667V28.75C9.5 27.0924 10.1585 25.5027 11.3306 24.3306C12.5027 23.1585 14.0924 22.5 15.75 22.5C17.4076 22.5 18.9973 23.1585 20.1694 24.3306C21.3415 25.5027 22 27.0924 22 28.75V29.1667C22 29.3877 21.9122 29.5996 21.7559 29.7559C21.5996 29.9122 21.3877 30 21.1667 30ZM24.0833 17.5C23.3417 17.5 22.6166 17.2801 21.9999 16.868C21.3833 16.456 20.9026 15.8703 20.6188 15.1851C20.335 14.4998 20.2607 13.7458 20.4054 13.0184C20.5501 12.291 20.9072 11.6228 21.4317 11.0984C21.9561 10.5739 22.6243 10.2168 23.3517 10.0721C24.0792 9.92736 24.8332 10.0016 25.5184 10.2855C26.2036 10.5693 26.7893 11.0499 27.2013 11.6666C27.6134 12.2833 27.8333 13.0083 27.8333 13.75C27.8322 14.7442 27.4368 15.6974 26.7338 16.4004C26.0307 17.1035 25.0776 17.4989 24.0833 17.5ZM22.8992 19.1842C22.123 19.2883 21.3767 19.5516 20.7071 19.9575C20.0374 20.3635 19.4588 20.9034 19.0075 21.5433C20.8749 22.3914 22.3422 23.9285 23.1025 25.8333H28.6667C28.8877 25.8333 29.0996 25.7455 29.2559 25.5893C29.4122 25.433 29.5 25.221 29.5 25V24.9683C29.4991 24.1377 29.3211 23.3168 28.9777 22.5604C28.6344 21.804 28.1336 21.1296 27.5088 20.5821C26.8841 20.0347 26.1498 19.6268 25.3549 19.3857C24.5599 19.1447 23.7227 19.0759 22.8992 19.1842Z" fill="#8DCB8D"/>
</svg>
