<svg width="39" height="40" viewBox="0 0 39 40" fill="none" xmlns="http://www.w3.org/2000/svg">
<rect width="39" height="40" rx="6" fill="#D6FFD6"/>
<path fill-rule="evenodd" clip-rule="evenodd" d="M10.9995 12.3999V27.2755C10.9995 29.036 12.4267 30.4631 14.1871 30.4631H24.8126C26.5731 30.4631 28.0002 29.036 28.0002 27.2755V16.6501C28.0002 14.8896 26.5731 13.4624 24.8126 13.4624H12.0621C11.4752 13.4624 10.9995 12.9867 10.9995 12.3999ZM14.4528 19.8377C14.4528 19.3976 14.8096 19.0408 15.2497 19.0408H23.75C24.1901 19.0408 24.5469 19.3976 24.5469 19.8377C24.5469 20.2778 24.1901 20.6346 23.75 20.6346H15.2497C14.8096 20.6346 14.4528 20.2778 14.4528 19.8377ZM14.4528 23.5566C14.4528 23.1165 14.8096 22.7597 15.2497 22.7597H21.0937C21.5338 22.7597 21.8906 23.1165 21.8906 23.5566C21.8906 23.9967 21.5338 24.3535 21.0937 24.3535H15.2497C14.8096 24.3535 14.4528 23.9967 14.4528 23.5566Z" fill="#8DCB8D"/>
<path d="M11.4336 11.43C11.8039 11.596 12.0618 11.9679 12.0618 12.4H24.8123C25.1792 12.4 25.5353 12.4464 25.8748 12.5339V11.6626C25.8748 10.3694 24.7294 9.37598 23.4493 9.55887L11.9763 11.1978C11.7718 11.2271 11.5865 11.3095 11.4336 11.43Z" fill="#8DCB8D"/>
</svg>
