<svg width="39" height="40" viewBox="0 0 39 40" fill="none" xmlns="http://www.w3.org/2000/svg">
<rect width="39" height="40" rx="6" fill="#D6FFD6"/>
<path d="M29.8975 20.7008L28.6597 18.7352L29.3939 16.5292C29.4933 16.2282 29.3694 15.8975 29.0965 15.74L27.0936 14.5776L26.7253 12.2806C26.6739 11.9672 26.4115 11.7334 26.097 11.7203L23.7869 11.6292L22.4009 9.76698C22.2118 9.51267 21.8696 9.42817 21.5868 9.56517L19.5 10.5644L17.4124 9.56435C17.1288 9.42899 16.7882 9.51349 16.5983 9.76698L15.2123 11.6292L12.9022 11.7203C12.5885 11.7326 12.3253 11.9664 12.2747 12.2798L11.9064 14.5768L9.90353 15.7392C9.63056 15.8967 9.50589 16.2273 9.6053 16.5284L10.3395 18.7344L9.10254 20.7008C8.93386 20.969 8.97705 21.3193 9.20439 21.5392L10.8724 23.1496L10.685 25.4679C10.6597 25.7854 10.8585 26.075 11.1608 26.1636L13.3813 26.8076L14.285 28.9495C14.4088 29.2407 14.7193 29.4097 15.0273 29.3425L17.2926 28.8749L19.0804 30.3491C19.2018 30.4483 19.3509 30.5 19.5 30.5C19.6491 30.5 19.7974 30.4483 19.9196 30.3491L21.7074 28.8749L23.9727 29.3425C24.2799 29.4081 24.592 29.2416 24.715 28.9495L25.6187 26.8076L27.8392 26.1636C28.1415 26.0758 28.3403 25.7854 28.315 25.4679L28.1276 23.1496L29.7956 21.5392C30.0229 21.3193 30.0661 20.969 29.8975 20.7008ZM24.2889 17.4923L19.6516 24.4867C19.4764 24.7476 19.205 24.9224 18.9353 24.9224C18.6664 24.9224 18.3657 24.7706 18.1742 24.577L14.7698 21.0945C14.5376 20.8566 14.5376 20.4711 14.7698 20.2332L15.6099 19.3718C15.8421 19.1372 16.2194 19.1372 16.45 19.3718L18.6656 21.6376L22.3194 16.1264C22.5027 15.8483 22.8751 15.7778 23.1456 15.9656L24.1308 16.6474C24.4021 16.836 24.4722 17.2159 24.2889 17.4923Z" fill="#8DCB8D"/>
</svg>
