<svg width="13" height="14" viewBox="0 0 13 14" fill="none" xmlns="http://www.w3.org/2000/svg">
<path d="M3.575 6.3C5.54942 6.3 7.15 8.0237 7.15 10.15C7.15 12.2763 5.54942 14 3.575 14C1.60058 14 0 12.2763 0 10.15C0 8.0237 1.60058 6.3 3.575 6.3ZM3.575 11.816C3.35081 11.816 3.16907 12.0117 3.16907 12.2532C3.16907 12.4946 3.35081 12.6903 3.575 12.6903C3.79919 12.6903 3.98093 12.4946 3.98093 12.2532C3.98093 12.0117 3.79919 11.816 3.575 11.816ZM10.8875 0C12.0542 0 13 1.01855 13 2.275V10.325C13 11.5814 12.0542 12.6 10.8875 12.6L7.13531 12.6008C7.32826 12.2764 7.48403 11.9239 7.59614 11.5503L10.8875 11.55C11.5157 11.55 12.025 11.0015 12.025 10.325V2.275C12.025 1.59845 11.5157 1.05 10.8875 1.05H3.4125C2.78428 1.05 2.275 1.59845 2.275 2.275L2.27473 5.81954C1.92777 5.94028 1.60044 6.10803 1.29921 6.31581L1.3 2.275C1.3 1.01855 2.2458 0 3.4125 0H10.8875ZM3.57503 7.70216C2.89386 7.70216 2.36324 8.27434 2.37033 9.07017C2.37205 9.26346 2.51895 9.41865 2.69844 9.41679C2.87792 9.41494 3.02202 9.25674 3.0203 9.06345C3.01669 8.65814 3.25408 8.40216 3.57503 8.40216C3.88207 8.40216 4.12974 8.67649 4.12974 9.06681C4.12974 9.22382 4.0808 9.34062 3.92309 9.54098L3.85873 9.62027L3.68623 9.82333C3.37143 10.2024 3.25003 10.4478 3.25003 10.8504C3.25003 11.0437 3.39554 11.2004 3.57503 11.2004C3.75452 11.2004 3.90003 11.0437 3.90003 10.8504C3.90003 10.6878 3.94969 10.5687 4.11046 10.3644L4.17608 10.2835L4.34881 10.0802C4.6593 9.70623 4.77974 9.46301 4.77974 9.06681C4.77974 8.29422 4.24521 7.70216 3.57503 7.70216ZM6.9875 2.1C7.2343 2.1 7.43827 2.29751 7.47055 2.55376L7.475 2.625V6.3H9.91137C10.1806 6.3 10.3989 6.53505 10.3989 6.825C10.3989 7.09079 10.2155 7.31044 9.97752 7.34521L9.91137 7.35H6.9875C6.7407 7.35 6.53673 7.15249 6.50445 6.89624L6.5 6.825V2.625C6.5 2.33505 6.71826 2.1 6.9875 2.1Z" fill="#B98500"/>
</svg>
