<svg width="14" height="13" viewBox="0 0 14 13" fill="none" xmlns="http://www.w3.org/2000/svg">
<path fill-rule="evenodd" clip-rule="evenodd" d="M7 13C10.5899 13 13.5 10.0899 13.5 6.5C13.5 2.91005 10.5899 0 7 0C3.41005 0 0.5 2.91005 0.5 6.5C0.5 10.0899 3.41005 13 7 13ZM6.025 9.74415C6.025 9.1806 6.45335 8.775 6.99415 8.775C7.54665 8.775 7.975 9.1806 7.975 9.74415C7.975 10.3077 7.54665 10.725 6.99415 10.725C6.45335 10.725 6.025 10.3077 6.025 9.74415ZM6.4618 2.6C6.41794 2.60005 6.37455 2.60897 6.33424 2.62622C6.29392 2.64348 6.25751 2.66872 6.22721 2.70042C6.1969 2.73212 6.17333 2.76963 6.1579 2.81068C6.14248 2.85174 6.13552 2.89549 6.13745 2.9393L6.33635 7.4893C6.34004 7.57299 6.3759 7.65203 6.43645 7.70992C6.49701 7.76781 6.57758 7.80008 6.66135 7.8H7.3393C7.42307 7.80008 7.50364 7.76781 7.5642 7.70992C7.62475 7.65203 7.66061 7.57299 7.6643 7.4893L7.86255 2.9393C7.86448 2.89543 7.8575 2.85163 7.84204 2.81053C7.82657 2.76944 7.80294 2.7319 7.77257 2.70019C7.74219 2.66848 7.70571 2.64325 7.66532 2.62603C7.62492 2.60881 7.58146 2.59996 7.53755 2.6H6.4618Z" fill="#B98500"/>
</svg>
