<svg width="14" height="14" viewBox="0 0 14 14" fill="none" xmlns="http://www.w3.org/2000/svg">
<path d="M4.075 6.3C6.04942 6.3 7.65 8.0237 7.65 10.15C7.65 12.2763 6.04942 14 4.075 14C2.10058 14 0.5 12.2763 0.5 10.15C0.5 8.0237 2.10058 6.3 4.075 6.3ZM4.075 11.816C3.85081 11.816 3.66907 12.0117 3.66907 12.2532C3.66907 12.4946 3.85081 12.6903 4.075 12.6903C4.29919 12.6903 4.48093 12.4946 4.48093 12.2532C4.48093 12.0117 4.29919 11.816 4.075 11.816ZM11.3875 0C12.5542 0 13.5 1.01855 13.5 2.275V10.325C13.5 11.5814 12.5542 12.6 11.3875 12.6L7.63531 12.6008C7.82826 12.2764 7.98403 11.9239 8.09614 11.5503L11.3875 11.55C12.0157 11.55 12.525 11.0015 12.525 10.325V2.275C12.525 1.59845 12.0157 1.05 11.3875 1.05H3.9125C3.28428 1.05 2.775 1.59845 2.775 2.275L2.77473 5.81954C2.42777 5.94028 2.10044 6.10803 1.79921 6.31581L1.8 2.275C1.8 1.01855 2.7458 0 3.9125 0H11.3875ZM4.07503 7.70216C3.39386 7.70216 2.86324 8.27434 2.87033 9.07017C2.87205 9.26346 3.01895 9.41865 3.19844 9.41679C3.37792 9.41494 3.52202 9.25674 3.5203 9.06345C3.51669 8.65814 3.75408 8.40216 4.07503 8.40216C4.38207 8.40216 4.62974 8.67649 4.62974 9.06681C4.62974 9.22382 4.5808 9.34062 4.42309 9.54098L4.35873 9.62027L4.18623 9.82333C3.87143 10.2024 3.75003 10.4478 3.75003 10.8504C3.75003 11.0437 3.89554 11.2004 4.07503 11.2004C4.25452 11.2004 4.40003 11.0437 4.40003 10.8504C4.40003 10.6878 4.44969 10.5687 4.61046 10.3644L4.67608 10.2835L4.84881 10.0802C5.1593 9.70623 5.27974 9.46301 5.27974 9.06681C5.27974 8.29422 4.74521 7.70216 4.07503 7.70216ZM7.4875 2.1C7.7343 2.1 7.93827 2.29751 7.97055 2.55376L7.975 2.625V6.3H10.4114C10.6806 6.3 10.8989 6.53505 10.8989 6.825C10.8989 7.09079 10.7155 7.31044 10.4775 7.34521L10.4114 7.35H7.4875C7.2407 7.35 7.03673 7.15249 7.00445 6.89624L7 6.825V2.625C7 2.33505 7.21826 2.1 7.4875 2.1Z" fill="#B98500"/>
</svg>
