<svg width="15" height="14" viewBox="0 0 15 14" fill="none" xmlns="http://www.w3.org/2000/svg">
<path d="M13.5618 3.50002L11.9374 2.56211L10.9998 0.937911H9.12425L7.49984 0L5.87542 0.937911H3.99992L3.06202 2.56235L1.43789 3.50002V5.37556L0.5 7L1.43789 8.62444V10.5L3.06231 11.4379L4.0002 13.0623H5.87571L7.49988 14L9.12429 13.0621H10.9998L11.9377 11.4376L13.5621 10.4997V8.6242L14.5 6.99976L13.5621 5.37532V3.50002H13.5618ZM6.86807 9.86503C6.73755 9.99555 6.5656 10.059 6.39441 10.0566C6.22319 10.059 6.05128 9.99555 5.92076 9.86503L3.87354 7.81778C3.61709 7.56133 3.61709 7.14529 3.87354 6.88884L4.4155 6.34687C4.67195 6.09042 5.08797 6.09042 5.34442 6.34687L6.39441 7.39688L9.65509 4.1359C9.91154 3.87945 10.3276 3.87945 10.584 4.1359L11.126 4.67787C11.3824 4.93432 11.3824 5.35036 11.126 5.60681L6.86807 9.86503Z" fill="#049605"/>
</svg>
