<svg width="39" height="40" viewBox="0 0 39 40" fill="none" xmlns="http://www.w3.org/2000/svg">
<rect width="39" height="40" rx="6" fill="#D6FFD6"/>
<path fill-rule="evenodd" clip-rule="evenodd" d="M14.0269 11H24.9731C26.0252 11 26.4077 11.116 26.7921 11.334C27.1764 11.552 27.4787 11.872 27.6846 12.2791C27.8904 12.6861 28 13.0901 28 14.2052V21.7156L23.8529 17.6624C23.7025 17.5153 23.5237 17.4046 23.3289 17.3378C23.1341 17.271 22.9279 17.2497 22.7246 17.2753C22.5213 17.301 22.3256 17.373 22.1511 17.4864C21.9766 17.5999 21.8274 17.752 21.7138 17.9324L18.7577 22.6276L16.5826 21.1476C16.2926 20.9503 15.9447 20.8717 15.6039 20.9266C15.2632 20.9815 14.953 21.166 14.7315 21.4456L11.0047 26.1508C11.0016 26.0325 11 25.9142 11 25.7958V14.2052C11 13.0901 11.1096 12.6861 11.3154 12.2791C11.5213 11.872 11.8236 11.552 12.2079 11.334C12.5923 11.116 12.9739 11 14.0269 11ZM22.9774 19.5305L28 24.4377V25.7948C28 26.9089 27.8904 27.3139 27.6846 27.7209C27.4833 28.1236 27.1723 28.4528 26.7921 28.666C26.4077 28.884 26.0261 29 24.9731 29H14.0269C12.9739 29 12.5923 28.884 12.2079 28.666C12.0418 28.5724 11.8879 28.4564 11.7499 28.321L15.9111 23.0677L18.1268 24.5758C18.4394 24.7885 18.8184 24.8626 19.1822 24.7821C19.5459 24.7017 19.8653 24.4731 20.0714 24.1457L22.9774 19.5305ZM15.7109 14.0002C14.6626 14.0002 13.8333 14.8322 13.8333 15.9883C13.8333 17.1453 14.6635 18.0004 15.7109 18.0004C16.7809 18.0004 17.6111 17.1453 17.6111 15.9883C17.6111 14.8322 16.7809 14.0002 15.7109 14.0002Z" fill="#8DCB8D"/>
</svg>
