<svg width="17" height="18" viewBox="0 0 17 18" fill="none" xmlns="http://www.w3.org/2000/svg">
<path fill-rule="evenodd" clip-rule="evenodd" d="M17 9C17 13.6944 13.1944 17.5 8.5 17.5C3.80558 17.5 0 13.6944 0 9C0 4.30558 3.80558 0.5 8.5 0.5C13.1944 0.5 17 4.30558 17 9ZM11.9258 6.42422C12.1747 6.67318 12.1747 7.07682 11.9258 7.32576L7.67576 11.5758C7.42679 11.8247 7.02321 11.8247 6.77422 11.5758L5.07422 9.87576C4.82526 9.62679 4.82526 9.22321 5.07422 8.97425C5.32318 8.72528 5.72682 8.72528 5.97578 8.97425L7.225 10.2234L9.12458 8.32383L11.0242 6.42422C11.2732 6.17526 11.6768 6.17526 11.9258 6.42422Z" fill="white"/>
</svg>
