<svg width="22" height="20" viewBox="0 0 22 20" fill="none" xmlns="http://www.w3.org/2000/svg">
<path d="M7.57372 9.35759C8.41029 9.35759 9.08844 10.0559 9.08844 10.9172C9.08844 11.7785 8.41029 12.4768 7.57372 12.4768L4.54424 14.8161L6.05896 10.9172C6.05896 10.0559 6.73715 9.35759 7.57372 9.35759ZM16.2835 8.96773C17.3163 8.96773 22.4802 19.0696 21.9638 19.6012C21.4474 20.1329 11.1196 20.1329 10.6032 19.6012C10.0868 19.0696 15.2507 8.96773 16.2835 8.96773ZM16.2835 16.9429C15.8557 16.9429 15.5089 17.2999 15.5089 17.7404C15.5089 18.1808 15.8557 18.5379 16.2835 18.5379C16.7113 18.5379 17.0581 18.1808 17.0581 17.7404C17.0581 17.2999 16.7113 16.9429 16.2835 16.9429ZM15.5089 12.1578L15.7671 16.2162H16.7999L17.0581 12.1578H15.5089ZM7.57377 18.7151C3.39091 18.7151 0 15.2238 0 10.9171C0 6.87366 2.98911 3.54897 6.81636 3.15773V2.33939H4.54424V0H10.6032V2.33939H8.33113V3.15773C9.85436 3.31341 11.2448 3.93381 12.3669 4.87927L12.9134 4.31658L11.8423 3.21382L13.4489 1.55961L16.6623 4.86799L15.0556 6.52221L13.9845 5.41939L13.438 5.98203C14.0119 6.70404 14.4624 7.5339 14.7566 8.4376C14.2686 8.92537 13.5223 10.0773 12.7415 11.4449L12.4967 11.697H11.3606V10.1374H13.204C12.8667 7.53115 10.8624 5.46751 8.33113 5.12025V7.01821H6.81636V5.12025C4.28508 5.46751 2.28073 7.53115 1.9435 10.1374H3.78688V11.697H1.9435C2.28073 14.3032 4.28508 16.3668 6.81636 16.7141V14.8161H8.33113V16.7141C9.07935 16.6115 9.78151 16.3589 10.4082 15.9866L10.3382 16.1408L9.17497 18.5405C8.65884 18.6549 8.1231 18.7151 7.57377 18.7151Z" fill="white"/>
</svg>
