<svg width="20" height="20" viewBox="0 0 20 20" fill="none" xmlns="http://www.w3.org/2000/svg">
<path fill-rule="evenodd" clip-rule="evenodd" d="M2.40504 5.77396C3.3258 4.80313 3.65185 4.53081 4.04385 4.40503C4.31555 4.33357 4.60057 4.32937 4.87424 4.39282C5.23449 4.49784 5.32852 4.57722 6.51061 5.7532C7.54856 6.78631 7.65114 6.89865 7.75128 7.09648C7.94495 7.45255 7.97609 7.87473 7.83676 8.25531C7.73418 8.54228 7.58276 8.73279 6.95389 9.36535L6.54358 9.77689C6.43563 9.88642 6.41003 10.0529 6.48008 10.1896C7.39091 11.7437 8.68291 13.0398 10.2339 13.9557C10.4128 14.0517 10.6332 14.0206 10.7785 13.8788L11.173 13.4905C11.4167 13.2404 11.6749 13.0047 11.946 12.7846C12.3712 12.5216 12.902 12.4962 13.3503 12.7175C13.5689 12.82 13.6422 12.8872 14.7132 13.9545C15.8122 15.0536 15.8476 15.089 15.971 15.3417C16.2013 15.7605 16.1989 16.2685 15.9648 16.685C15.8427 16.9195 15.7743 17.005 15.154 17.6388C14.7791 18.0222 14.4213 18.3715 14.37 18.4227C13.8577 18.8463 13.201 19.0542 12.5383 19.0028C11.3259 18.8919 10.1526 18.5168 9.10067 17.9038C6.76929 16.6685 4.78467 14.8687 3.32824 12.6686C3.00975 12.2087 2.72645 11.7254 2.48075 11.2227C1.8261 10.1005 1.48765 8.82181 1.50138 7.52267C1.55062 6.84067 1.87722 6.20865 2.40504 5.77396Z" stroke="black" stroke-width="1.5" stroke-linecap="round" stroke-linejoin="round"/>
<path d="M12.9086 1.04335C12.4324 0.872473 11.9081 1.11989 11.7371 1.59599C11.5663 2.07208 11.8137 2.59654 12.2898 2.76742L12.9086 1.04335ZM17.7262 8.11282C17.9051 8.58603 18.4336 8.82452 18.9068 8.64562C19.3799 8.46672 19.6185 7.93821 19.4396 7.46507L17.7262 8.11282ZM11.4577 3.76329C10.9642 3.65187 10.4739 3.96151 10.3626 4.45491C10.2511 4.94831 10.5608 5.43863 11.0541 5.55006L11.4577 3.76329ZM15.0186 9.44903C15.1383 9.94055 15.6337 10.2419 16.1251 10.1223C16.6167 10.0026 16.918 9.50728 16.7985 9.01576L15.0186 9.44903ZM12.2898 2.76742C14.7971 3.66736 16.7841 5.62104 17.7262 8.11282L19.4396 7.46507C18.3078 4.47153 15.9208 2.12449 12.9086 1.04335L12.2898 2.76742ZM11.0541 5.55006C13.0088 5.9915 14.5447 7.50201 15.0186 9.44903L16.7985 9.01576C16.1599 6.39287 14.0908 4.35798 11.4577 3.76329L11.0541 5.55006Z" fill="black"/>
</svg>
