<svg width="39" height="40" viewBox="0 0 39 40" fill="none" xmlns="http://www.w3.org/2000/svg">
<rect width="39" height="40" rx="6" fill="#D6FFD6"/>
<path fill-rule="evenodd" clip-rule="evenodd" d="M11 12.3999V27.2755C11 29.036 12.4272 30.4631 14.1876 30.4631H24.8131C26.5736 30.4631 28.0007 29.036 28.0007 27.2755V16.6501C28.0007 14.8896 26.5736 13.4624 24.8131 13.4624H12.0625C11.4757 13.4624 11 12.9867 11 12.3999ZM14.4533 19.8377C14.4533 19.3976 14.8101 19.0408 15.2502 19.0408H23.7505C24.1906 19.0408 24.5474 19.3976 24.5474 19.8377C24.5474 20.2778 24.1906 20.6346 23.7505 20.6346H15.2502C14.8101 20.6346 14.4533 20.2778 14.4533 19.8377ZM14.4533 23.5566C14.4533 23.1165 14.8101 22.7597 15.2502 22.7597H21.0942C21.5343 22.7597 21.8911 23.1165 21.8911 23.5566C21.8911 23.9967 21.5343 24.3535 21.0942 24.3535H15.2502C14.8101 24.3535 14.4533 23.9967 14.4533 23.5566Z" fill="#8DCB8D"/>
<path d="M11.4346 11.43C11.8048 11.596 12.0628 11.9679 12.0628 12.4H24.8133C25.1802 12.4 25.5362 12.4464 25.8758 12.5339V11.6626C25.8758 10.3694 24.7304 9.37598 23.4502 9.55887L11.9773 11.1978C11.7728 11.2271 11.5875 11.3095 11.4346 11.43Z" fill="#8DCB8D"/>
</svg>
