<svg width="54" height="54" viewBox="0 0 54 54" fill="none" xmlns="http://www.w3.org/2000/svg">
<rect x="0.644531" width="52.8" height="54" rx="6" fill="#F2F2F2"/>
<path fill-rule="evenodd" clip-rule="evenodd" d="M28.8249 17H28.8466C28.9677 17 29.0619 17 29.151 17.0054C30.2822 17.0739 31.2727 17.7878 31.6954 18.8392C31.7289 18.9226 31.784 19.0881 31.8233 19.2061L31.8275 19.2186C31.9374 19.5171 32.136 19.7757 32.3659 19.9604C32.6086 19.9682 32.8403 19.9783 33.0618 19.9914C34.8154 20.0949 35.9282 20.3826 36.7286 21.183C36.9896 21.444 37.196 21.7382 37.3594 22.077C37.298 22.0979 37.2381 22.1267 37.1812 22.1637C34.9409 23.6199 33.5334 24.5308 32.3638 25.1151C32.2929 24.7458 31.9681 24.4668 31.5782 24.4668C31.1363 24.4668 30.7782 24.8249 30.7782 25.2668V25.7552C28.5174 26.4374 26.1056 26.4374 23.8448 25.7552V25.2668C23.8448 24.8249 23.4866 24.4668 23.0448 24.4668C22.6548 24.4668 22.33 24.7458 22.2592 25.1151C21.0896 24.5308 19.682 23.62 17.4416 22.1637C17.3847 22.1268 17.325 22.098 17.2638 22.0771C17.4271 21.7382 17.6336 21.444 17.8946 21.183C18.6949 20.3826 19.8078 20.0949 21.5614 19.9914C21.7716 19.979 21.9911 19.9692 22.2205 19.9616C22.2349 19.9498 22.2494 19.9377 22.2639 19.9251C22.5206 19.7033 22.7214 19.4108 22.8226 19.1364L22.8259 19.1263C22.8642 19.0115 22.894 18.9221 22.9274 18.8392C23.35 17.7878 24.3405 17.0739 25.4717 17.0054C25.5609 17 25.655 17 25.7761 17H28.8249ZM24.3061 19.7367L24.3109 19.7253L24.3162 19.7124L24.3211 19.6996L24.3249 19.689L24.3268 19.6837L24.3313 19.6706L24.3354 19.6586L24.3376 19.6519L24.3406 19.643L24.3429 19.6355L24.3449 19.6294C24.3869 19.5036 24.3998 19.4662 24.4118 19.436C24.6039 18.9581 25.0542 18.6336 25.5683 18.6024C25.6028 18.6004 25.645 18.6 25.7979 18.6H28.8249C28.9777 18.6 29.0199 18.6004 29.0543 18.6024C29.5684 18.6336 30.0186 18.958 30.2107 19.4358L30.2136 19.4432L30.2221 19.4666C30.2291 19.4864 30.2378 19.5112 30.2477 19.5403C30.2653 19.5919 30.2851 19.6512 30.3052 19.7113L30.3071 19.7176L30.3095 19.7251L30.3124 19.734L30.3147 19.7407L30.3187 19.7528L30.3233 19.7658L30.3252 19.7712L30.329 19.7818L30.3339 19.7945L30.3391 19.8075L30.3436 19.818L30.3443 19.8196C30.3591 19.8578 30.3749 19.896 30.3915 19.934C30.0889 19.9333 29.7736 19.9333 29.4449 19.9333H25.1782C24.846 19.9333 24.5275 19.9333 24.222 19.934C24.2524 19.8689 24.2804 19.803 24.3061 19.7367Z" fill="#5C6597"/>
<path d="M37.8051 23.6661C37.978 24.8435 37.978 26.386 37.978 28.4664C37.978 32.4892 37.978 34.5005 36.7284 35.7502C35.4787 36.9998 33.4674 36.9998 29.4447 36.9998H25.178C21.1554 36.9998 19.144 36.9998 17.8944 35.7502C16.6447 34.5005 16.6447 32.4892 16.6447 28.4664C16.6447 26.3861 16.6447 24.8437 16.8176 23.6664C19.246 25.2448 20.8025 26.2515 22.2446 26.8715V27.3999C22.2446 27.8417 22.6028 28.1999 23.0446 28.1999C23.4805 28.1999 23.8351 27.8512 23.8444 27.4174C26.1167 28.0164 28.5058 28.0164 30.7781 27.4174C30.7874 27.8511 31.1419 28.1999 31.5779 28.1999C32.0198 28.1999 32.3779 27.8417 32.3779 27.3999V26.8714C33.8201 26.2514 35.3766 25.2447 37.8051 23.6661Z" fill="#5C6597"/>
</svg>
