<svg width="14" height="14" viewBox="0 0 14 14" fill="none" xmlns="http://www.w3.org/2000/svg">
<path fill-rule="evenodd" clip-rule="evenodd" d="M10.9994 14.0001C11.3308 14.0001 11.5994 13.7316 11.5994 13.4001V2.40006L12.9194 4.16008C13.1182 4.42518 13.4943 4.4789 13.7594 4.28008C14.0246 4.08125 14.0782 3.70517 13.8794 3.44007L11.4794 0.240041C11.3245 0.0334311 11.0547 -0.0508418 10.8097 0.030831C10.5647 0.112496 10.3994 0.341786 10.3994 0.600044V13.4001C10.3994 13.7316 10.6681 14.0001 10.9994 14.0001Z" fill="#6A6A6A"/>
<path d="M0 3.79971C0 4.13108 0.268634 4.39972 0.600006 4.39972H7.80007C8.13143 4.39972 8.40008 4.13108 8.40008 3.79971C8.40008 3.46834 8.13143 3.19971 7.80007 3.19971H0.600006C0.268634 3.19971 0 3.46834 0 3.79971Z" fill="#6A6A6A"/>
<path opacity="0.3" d="M1.60059 7.79996C1.60059 8.13132 1.86922 8.39996 2.20059 8.39996H7.80064C8.13201 8.39996 8.40065 8.13132 8.40065 7.79996C8.40065 7.46859 8.13201 7.19995 7.80064 7.19995H2.20059C1.86922 7.19995 1.60059 7.46859 1.60059 7.79996Z" fill="#1C274C"/>
<path opacity="0.1" d="M3.19922 11.8C3.19922 12.1313 3.46785 12.4 3.79922 12.4H7.79926C8.13062 12.4 8.39927 12.1313 8.39927 11.8C8.39927 11.4686 8.13062 11.2 7.79926 11.2H3.79922C3.46785 11.2 3.19922 11.4686 3.19922 11.8Z" fill="#1C274C"/>
</svg>
