<svg width="17" height="18" viewBox="0 0 17 18" fill="none" xmlns="http://www.w3.org/2000/svg">
<path fill-rule="evenodd" clip-rule="evenodd" d="M5.49473 6.74751C5.28701 6.54032 5.28701 6.20029 5.49473 5.99311C5.70192 5.78592 6.03872 5.78592 6.24644 5.99311L8.49682 8.2456L10.7631 5.97722C10.9724 5.77003 11.3114 5.77003 11.5207 5.97722C11.7295 6.18972 11.7295 6.52968 11.5207 6.73687L9.25437 9.00532L11.5048 11.2525C11.7125 11.4597 11.7125 11.7997 11.5048 12.0069C11.2981 12.2141 10.9613 12.2141 10.7536 12.0069L8.50318 9.7544L6.21988 12.0387C6.01057 12.2459 5.67217 12.2459 5.46285 12.0387C5.25407 11.8262 5.25407 11.4916 5.46285 11.2791L7.74563 8.99468L5.49473 6.74751ZM8.5 17.5C13.1947 17.5 17 13.6962 17 9C17 4.30375 13.1947 0.5 8.5 0.5C3.80534 0.5 0 4.30375 0 9C0 13.6962 3.80534 17.5 8.5 17.5Z" fill="white"/>
</svg>
