<svg width="16" height="16" viewBox="0 0 16 16" fill="none" xmlns="http://www.w3.org/2000/svg">
<path d="M5.66682 2.55556H3.48904C2.61785 2.55556 2.18193 2.55556 1.84918 2.7251C1.55648 2.87423 1.31868 3.11203 1.16955 3.40473C1 3.73748 1 4.1734 1 5.0446V12.5113C1 13.3825 1 13.8179 1.16955 14.1506C1.31868 14.4433 1.55648 14.6815 1.84918 14.8306C2.1816 15 2.61699 15 3.48649 15H10.958C11.8274 15 12.2622 15 12.5946 14.8306C12.8873 14.6815 13.1259 14.443 13.275 14.1504C13.4444 13.8179 13.4444 13.383 13.4444 12.5135V10.3333M10.3333 3.33333L5.66667 8V10.3333H8L12.6667 5.66667M10.3333 3.33333L12.6667 1L15 3.33333L12.6667 5.66667M10.3333 3.33333L12.6667 5.66667" stroke="white" stroke-width="1.4" stroke-linecap="round" stroke-linejoin="round"/>
</svg>
