<svg width="16" height="14" viewBox="0 0 16 14" fill="none" xmlns="http://www.w3.org/2000/svg">
<path d="M14.0029 2.54545H10.0833V0.95622C10.0833 0.369292 9.62036 0 9.05054 0C9.05054 0 6.8781 0 6.88994 0C6.33202 0 5.85714 0.369292 5.85714 0.95622V2.61244H1.99786C1.2225 2.61244 0.5 3.35303 0.5 4.33169C0.5 4.35815 0.5 12.2071 0.5 12.2071C0.5 13.2982 1.22446 14 1.9881 14H14.0087C14.769 14 15.5 13.3577 15.5 12.2537C15.5 12.2537 15.5 4.3185 15.5 4.285C15.4942 3.29482 14.7749 2.54545 14.0029 2.54545ZM6.63095 0.937799H9.30952V2.61244H6.63095V0.937799ZM8 11.7953C6.32369 11.7953 4.96452 10.2658 4.96452 8.3793C4.96452 6.49232 6.32369 4.96277 8 4.96277C9.67631 4.96277 11.0355 6.49232 11.0355 8.3793C11.0355 10.2658 9.67631 11.7953 8 11.7953ZM9.33286 6.04398L8.30107 8.03171H9.33286L6.93512 10.7946L7.66333 8.80687H6.68411L8.15369 6.04398H9.33286Z" fill="#B98500"/>
</svg>
