<svg width="17" height="14" viewBox="0 0 17 14" fill="none" xmlns="http://www.w3.org/2000/svg">
<path d="M16.9561 1.99311C16.8795 1.5881 16.7083 1.21747 16.4693 0.911291C16.4189 0.844579 16.3663 0.784834 16.3092 0.725089C15.8857 0.278554 15.2913 0 14.6419 0H2.35812C1.70877 0 1.11649 0.278554 0.690992 0.725089C0.634048 0.784834 0.581388 0.844579 0.530853 0.911291C0.29169 1.21744 0.120528 1.5881 0.0460196 1.99311C0.0154063 2.14942 0 2.31096 0 2.47427V11.526C0 11.8732 0.0701915 12.207 0.195368 12.5085C0.311479 12.7962 0.482675 13.0566 0.690958 13.2749C0.743751 13.3302 0.796179 13.381 0.853388 13.4315C1.26132 13.7859 1.78789 14 2.35812 14H14.6419C15.2123 14 15.7412 13.7859 16.1468 13.4292C16.2038 13.381 16.2565 13.3302 16.3092 13.2749C16.5174 13.0566 16.6885 12.7962 16.807 12.5085V12.5062C16.9322 12.2048 17 11.8732 17 11.526V2.47427C17 2.31096 16.9849 2.14942 16.9561 1.99311ZM1.54425 1.62022C1.75492 1.39942 2.03785 1.26575 2.35812 1.26575H14.6419C14.9622 1.26575 15.2476 1.39942 15.4558 1.62022C15.493 1.65955 15.5281 1.70337 15.5591 1.74692L9.12078 7.63413C8.94321 7.79741 8.72387 7.87806 8.50002 7.87806C8.27842 7.87806 8.05921 7.79741 7.87928 7.63413L1.44341 1.74441C1.4719 1.70086 1.50699 1.65955 1.54425 1.62022ZM1.2064 11.526V3.05423L5.86561 7.31876L1.20876 11.5788C1.2064 11.5626 1.2064 11.5444 1.2064 11.526ZM14.6419 12.734H2.35812C2.14957 12.734 1.95444 12.6765 1.78789 12.5754L6.70123 8.08293L7.15994 8.5016C7.5438 8.85157 8.02415 9.02882 8.50002 9.02882C8.97834 9.02882 9.45866 8.85157 9.84249 8.5016L10.301 8.08293L15.2124 12.5754C15.0456 12.6765 14.8505 12.734 14.6419 12.734ZM15.7936 11.526C15.7936 11.5444 15.7936 11.5626 15.7914 11.5788L11.1346 7.32123L15.7936 3.0565V11.526Z" fill="black"/>
</svg>
