<svg width="52" height="54" viewBox="0 0 52 54" fill="none" xmlns="http://www.w3.org/2000/svg">
<rect width="52" height="54" rx="6" fill="#F2F2F2"/>
<path d="M26.7341 35.3735C27.0232 35.4407 27.0497 35.8195 26.7681 35.9133L25.1054 36.4606C20.9274 37.8076 18.728 36.6816 17.3704 32.5037L16.0234 28.3468C14.6763 24.1688 15.7918 21.9588 19.9698 20.6118L20.5212 20.4292C20.9452 20.2888 21.3578 20.714 21.2374 21.1441C21.1777 21.3573 21.1203 21.5797 21.0642 21.8115L20.0329 26.221C18.8753 31.1777 20.5696 33.9138 25.5263 35.0925L26.7341 35.3735Z" fill="#5C6597"/>
<path d="M31.4638 17.7457L29.7063 17.3352C26.1914 16.5039 24.0972 17.1879 22.8659 19.7346C22.5501 20.3766 22.2976 21.1553 22.0871 22.0499L21.0558 26.4593C20.0244 30.8582 21.382 33.0261 25.7704 34.0679L27.5384 34.4889C28.1488 34.6362 28.7171 34.7309 29.2433 34.773C32.5267 35.0887 34.2736 33.5523 35.1576 29.7532L36.1889 25.3543C37.2203 20.9554 35.8732 18.777 31.4638 17.7457ZM29.4853 28.3956C29.3906 28.7534 29.0749 28.985 28.7171 28.985C28.6539 28.985 28.5908 28.9744 28.5171 28.9639L25.4547 28.1852C25.0338 28.0799 24.7812 27.6485 24.8864 27.2275C24.9917 26.8066 25.4231 26.554 25.8441 26.6592L28.9065 27.438C29.338 27.5432 29.5905 27.9747 29.4853 28.3956ZM32.5688 24.8387C32.474 25.1964 32.1583 25.4279 31.8005 25.4279C31.7374 25.4279 31.6742 25.4174 31.6006 25.4069L26.4966 24.1125C26.0756 24.0073 25.823 23.5758 25.9283 23.1549C26.0335 22.7339 26.465 22.4813 26.8859 22.5866L31.99 23.881C32.4214 23.9757 32.674 24.4072 32.5688 24.8387Z" fill="#5C6597"/>
</svg>
