<svg width="17" height="16" viewBox="0 0 17 16" fill="none" xmlns="http://www.w3.org/2000/svg">
<g clip-path="url(#clip0_43_1811)">
<path d="M8.64453 16C10.2268 16 11.7735 15.5308 13.0891 14.6518C14.4047 13.7727 15.4301 12.5233 16.0356 11.0615C16.6411 9.59966 16.7995 7.99113 16.4908 6.43928C16.1821 4.88743 15.4202 3.46197 14.3014 2.34315C13.1826 1.22433 11.7571 0.462403 10.2053 0.153721C8.65341 -0.15496 7.04487 0.00346629 5.58306 0.608967C4.12126 1.21447 2.87183 2.23985 1.99277 3.55544C1.11372 4.87104 0.644531 6.41775 0.644531 8C0.646825 10.121 1.49042 12.1545 2.99021 13.6543C4.49001 15.1541 6.5235 15.9977 8.64453 16ZM8.64453 3.33334C8.84231 3.33334 9.03565 3.39199 9.2001 3.50187C9.36455 3.61175 9.49272 3.76793 9.56841 3.95065C9.6441 4.13338 9.6639 4.33445 9.62532 4.52843C9.58673 4.72241 9.49149 4.90059 9.35164 5.04044C9.21179 5.1803 9.0336 5.27554 8.83962 5.31412C8.64564 5.35271 8.44457 5.3329 8.26185 5.25722C8.07912 5.18153 7.92294 5.05336 7.81306 4.88891C7.70318 4.72446 7.64453 4.53112 7.64453 4.33334C7.64453 4.06812 7.74989 3.81377 7.93743 3.62623C8.12496 3.43869 8.37932 3.33334 8.64453 3.33334ZM7.97787 6.66667H8.64453C8.99815 6.66667 9.33729 6.80715 9.58734 7.0572C9.83739 7.30724 9.97787 7.64638 9.97787 8V12C9.97787 12.1768 9.90763 12.3464 9.7826 12.4714C9.65758 12.5964 9.48801 12.6667 9.3112 12.6667C9.13439 12.6667 8.96482 12.5964 8.83979 12.4714C8.71477 12.3464 8.64453 12.1768 8.64453 12V8H7.97787C7.80105 8 7.63149 7.92977 7.50646 7.80474C7.38144 7.67972 7.3112 7.51015 7.3112 7.33334C7.3112 7.15653 7.38144 6.98696 7.50646 6.86193C7.63149 6.73691 7.80105 6.66667 7.97787 6.66667Z" fill="#9C91AF"/>
</g>
<defs>
<clipPath id="clip0_43_1811">
<rect width="16" height="16" fill="white" transform="translate(0.644531)"/>
</clipPath>
</defs>
</svg>
