<svg width="24" height="24" viewBox="0 0 24 24" fill="none" xmlns="http://www.w3.org/2000/svg">
<g clip-path="url(#clip0_43_2133)">
<path d="M20.7808 19.7198L16.3041 15.2431C17.524 13.751 18.1239 11.8471 17.9795 9.92525C17.8351 8.00335 16.9575 6.21048 15.5283 4.91747C14.099 3.62446 12.2275 2.93025 10.3008 2.97842C8.37409 3.0266 6.5396 3.81347 5.17678 5.17629C3.81396 6.53911 3.02709 8.3736 2.97891 10.3003C2.93074 12.227 3.62495 14.0985 4.91796 15.5278C6.21097 16.957 8.00384 17.8346 9.92574 17.979C11.8476 18.1234 13.7515 17.5235 15.2436 16.3036L19.7203 20.7803C19.8618 20.917 20.0512 20.9925 20.2479 20.9908C20.4445 20.9891 20.6326 20.9103 20.7717 20.7712C20.9107 20.6321 20.9896 20.444 20.9913 20.2474C20.993 20.0507 20.9174 19.8613 20.7808 19.7198ZM10.5006 16.5001C9.31388 16.5001 8.15384 16.1482 7.16715 15.4889C6.18045 14.8296 5.41142 13.8925 4.95729 12.7962C4.50317 11.6998 4.38435 10.4934 4.61586 9.32954C4.84737 8.16565 5.41881 7.09655 6.25793 6.25744C7.09704 5.41832 8.16614 4.84688 9.33003 4.61537C10.4939 4.38386 11.7003 4.50268 12.7967 4.9568C13.893 5.41093 14.8301 6.17996 15.4894 7.16666C16.1487 8.15335 16.5006 9.31339 16.5006 10.5001C16.4988 12.0908 15.8661 13.6159 14.7412 14.7407C13.6164 15.8656 12.0913 16.4983 10.5006 16.5001Z" fill="#5D637E"/>
</g>
<defs>
<clipPath id="clip0_43_2133">
<rect width="18" height="18" fill="white" transform="translate(3 3)"/>
</clipPath>
</defs>
</svg>
