<svg width="39" height="40" viewBox="0 0 39 40" fill="none" xmlns="http://www.w3.org/2000/svg">
<rect width="39" height="40" rx="6" fill="#D6FFD6"/>
<path d="M12.9056 13.3855L18.4594 15.072L18.7368 14.1586L12.7869 12.3518L10.1426 13.8777L10.6197 14.7045L12.9056 13.3855Z" fill="#8DCB8D"/>
<path d="M12.9056 15.07L18.4594 16.7566L18.7368 15.8431L12.7869 14.0364L10.1426 15.5623L10.6197 16.3891L12.9056 15.07Z" fill="#8DCB8D"/>
<path d="M12.9056 16.7546L18.4594 18.4411L18.7368 17.5277L12.7869 15.7209L10.1426 17.2469L10.6197 18.0737L12.9056 16.7546Z" fill="#8DCB8D"/>
<path d="M12.9056 18.4392L18.4594 20.1257L18.7368 19.2123L12.7869 17.4055L10.1426 18.9315L10.6197 19.7582L12.9056 18.4392Z" fill="#8DCB8D"/>
<path d="M12.9056 20.1237L18.4594 21.8103L18.7368 20.8968L12.7869 19.0901L10.1426 20.616L10.6196 21.4428L12.9056 20.1237Z" fill="#8DCB8D"/>
<path d="M12.9056 21.8083L18.4594 23.4948L18.7368 22.5814L12.7869 20.7747L10.1426 22.3005L10.6196 23.1273L12.9056 21.8083Z" fill="#8DCB8D"/>
<path d="M12.9056 23.4929L18.4594 25.1794L18.7368 24.266L12.7869 22.4592L10.1426 23.9851L10.6196 24.8119L12.9056 23.4929Z" fill="#8DCB8D"/>
<path d="M12.9056 25.1775L18.4594 26.864L18.7368 25.9506L12.7869 24.1438L10.1426 25.6697L10.6196 26.4965L12.9056 25.1775Z" fill="#8DCB8D"/>
<path d="M21.9778 13.3855L27.5317 15.072L27.809 14.1586L21.8591 12.3518L19.2148 13.8777L19.6919 14.7045L21.9778 13.3855Z" fill="#8DCB8D"/>
<path d="M21.9778 11.7009L27.5317 13.3874L27.809 12.474L21.8591 10.6672L19.2148 12.1932L19.6919 13.02L21.9778 11.7009Z" fill="#8DCB8D"/>
<path d="M21.9778 10.0163L27.5317 11.7029L27.809 10.7894L21.8591 8.98267L19.2148 10.5086L19.6919 11.3354L21.9778 10.0163Z" fill="#8DCB8D"/>
<path d="M21.9778 15.07L27.5317 16.7566L27.809 15.8431L21.8591 14.0364L19.2148 15.5623L19.6919 16.3891L21.9778 15.07Z" fill="#8DCB8D"/>
<path d="M21.9778 16.7546L27.5317 18.4411L27.809 17.5277L21.8591 15.7209L19.2148 17.2469L19.6919 18.0737L21.9778 16.7546Z" fill="#8DCB8D"/>
<path d="M21.9778 18.4392L27.5317 20.1257L27.809 19.2123L21.8591 17.4055L19.2148 18.9315L19.6919 19.7582L21.9778 18.4392Z" fill="#8DCB8D"/>
<path d="M21.9778 20.1237L27.5317 21.8103L27.809 20.8968L21.8591 19.0901L19.2148 20.616L19.6919 21.4428L21.9778 20.1237Z" fill="#8DCB8D"/>
<path d="M21.9778 21.8083L27.5317 23.4948L27.809 22.5814L21.8591 20.7747L19.2148 22.3005L19.6919 23.1273L21.9778 21.8083Z" fill="#8DCB8D"/>
<path d="M21.9778 23.4929L27.5317 25.1794L27.809 24.266L21.8591 22.4592L19.2148 23.9851L19.6919 24.8119L21.9778 23.4929Z" fill="#8DCB8D"/>
<path d="M21.9778 25.1775L27.5317 26.864L27.809 25.9506L21.8591 24.1438L19.2148 25.6697L19.6919 26.4965L21.9778 25.1775Z" fill="#8DCB8D"/>
<path d="M27.5426 30.1043V28.5146L27.8096 27.6351L21.8597 25.8284L19.2154 27.3543L19.4825 27.817V30.1043H18.4703V28.5146L18.7374 27.6351L12.7875 25.8284L10.1431 27.3543L10.4102 27.817V30.1043H9V31.0173H30.001V30.1043H27.5426ZM14.1594 30.1043V28.1635L17.0749 28.8632V30.1043H14.1594ZM23.2318 30.1043V28.1635L26.1472 28.8632V30.1043H23.2318Z" fill="#8DCB8D"/>
</svg>
