<svg width="15" height="14" viewBox="0 0 15 14" fill="none" xmlns="http://www.w3.org/2000/svg">
<path d="M5.74167 13.4134L8.5906 12.2817C8.69722 12.9405 8.32037 13.6084 7.63476 13.8808C6.94916 14.1531 6.17398 13.9428 5.74167 13.4134ZM10.0862 0.06883C11.7542 0.92168 13.0063 2.0167 13.8302 3.35218C14.6541 4.68766 15.0413 6.25002 14.9965 8.0283C14.9887 8.33822 14.7139 8.58354 14.3828 8.57623C14.0516 8.56893 13.7895 8.31177 13.7973 8.00185C13.8371 6.42171 13.5002 5.06257 12.7913 3.91349C12.0825 2.76442 10.9932 1.81183 9.51107 1.054C9.22038 0.905368 9.11348 0.564338 9.2723 0.292291C9.43112 0.0202434 9.79552 -0.0798034 10.0862 0.06883ZM2.76909 3.37798C5.05763 2.4244 7.73053 3.32605 8.84639 5.43276L8.925 5.58949L9.95449 7.75378L11.3126 8.85377C11.3868 8.91384 11.451 8.98375 11.5255 9.09686L11.5724 9.1824C11.7958 9.65487 11.5677 10.2074 11.0628 10.4165L2.80462 13.8369C2.67721 13.8896 2.53941 13.9169 2.40007 13.9169C1.848 13.9169 1.40045 13.498 1.40045 12.9816L1.39958 11.2282L0.406056 9.13909C-0.644352 6.93114 0.413395 4.35953 2.76909 3.37798ZM9.89623 2.7636C10.6695 3.15822 11.2893 3.73252 11.7485 4.47695C12.2078 5.22138 12.4293 6.01083 12.4079 6.83489C12.3998 7.1448 12.1248 7.38991 11.7936 7.38235C11.4625 7.37479 11.2006 7.11742 11.2087 6.80751C11.2247 6.19263 11.0602 5.60635 10.7097 5.03826C10.3592 4.47016 9.89898 4.04367 9.32197 3.74922C9.03115 3.60081 8.92394 3.25986 9.08252 2.98769C9.2411 2.71552 9.60541 2.61519 9.89623 2.7636Z" fill="#F50000"/>
</svg>
