<svg width="25" height="24" viewBox="0 0 25 24" fill="none" xmlns="http://www.w3.org/2000/svg">
<path d="M12.3486 10C14.5578 10 16.3486 8.20914 16.3486 6C16.3486 3.79086 14.5578 2 12.3486 2C10.1395 2 8.34863 3.79086 8.34863 6C8.34863 8.20914 10.1395 10 12.3486 10Z" stroke="#686B6E" stroke-width="1.5"/>
<path d="M20.3461 18C20.3486 17.8358 20.3486 17.669 20.3486 17.5C20.3486 15.0147 16.7669 13 12.3486 13C7.93035 13 4.34863 15.0147 4.34863 17.5C4.34863 19.9853 4.34863 22 12.3486 22C14.5796 22 16.1884 21.8433 17.3486 21.5634" stroke="#686B6E" stroke-width="1.5" stroke-linecap="round"/>
</svg>
