<svg width="24" height="24" viewBox="0 0 24 24" fill="none" xmlns="http://www.w3.org/2000/svg">
<path d="M2.80371 15.4771C2.80371 15.4771 2.94571 17.2151 2.97871 17.7631C3.02271 18.4981 3.30671 19.319 3.78071 19.889C4.44971 20.697 5.23771 20.9821 6.28971 20.9841C7.52671 20.9861 16.5217 20.9861 17.7587 20.9841C18.8107 20.9821 19.5987 20.697 20.2677 19.889C20.7417 19.319 21.0257 18.4981 21.0707 17.7631C21.1027 17.2151 21.2447 15.4771 21.2447 15.4771" stroke="#686B6E" stroke-width="1.5" stroke-linecap="round" stroke-linejoin="round"/>
<path d="M8.49609 5.32949V4.95849C8.49609 3.73849 9.48409 2.75049 10.7041 2.75049H13.2861C14.5051 2.75049 15.4941 3.73849 15.4941 4.95849L15.4951 5.32949" stroke="#686B6E" stroke-width="1.5" stroke-linecap="round" stroke-linejoin="round"/>
<path d="M11.9951 16.6783V15.3843" stroke="#686B6E" stroke-width="1.5" stroke-linecap="round" stroke-linejoin="round"/>
<path fill-rule="evenodd" clip-rule="evenodd" d="M2.75 8.38905V11.8561C4.668 13.1211 6.966 14.0071 9.488 14.3581C9.79 13.2571 10.783 12.4501 11.99 12.4501C13.178 12.4501 14.191 13.2571 14.473 14.3681C17.005 14.0171 19.312 13.1311 21.24 11.8561V8.38905C21.24 6.69505 19.877 5.33105 18.183 5.33105H5.817C4.123 5.33105 2.75 6.69505 2.75 8.38905Z" stroke="#686B6E" stroke-width="1.5" stroke-linecap="round" stroke-linejoin="round"/>
</svg>
