<svg width="17" height="18" viewBox="0 0 17 18" fill="none" xmlns="http://www.w3.org/2000/svg">
<path d="M17 8.78131C17 13.3546 13.2637 17.0621 8.65383 17.0621C7.19092 17.0621 5.81671 16.6879 4.62044 16.0327L0 17.5L1.50615 13.0558C0.746698 11.8086 0.309323 10.344 0.309323 8.78076C0.309877 4.20744 4.04503 0.5 8.65494 0.5C13.2643 0.501109 17 4.20799 17 8.78131ZM8.65328 1.82044C4.78452 1.82044 1.63753 4.9436 1.63753 8.78298C1.63753 10.3063 2.13422 11.7166 2.97404 12.864L2.09818 15.4489L4.79339 14.5925C5.90208 15.3198 7.22862 15.7433 8.65328 15.7433C12.522 15.7433 15.6701 12.6207 15.6701 8.78131C15.6712 4.9436 12.5226 1.82044 8.65328 1.82044ZM12.8685 10.6888C12.8164 10.6051 12.68 10.5541 12.476 10.4521C12.2726 10.3501 11.2653 9.85951 11.0785 9.79299C10.89 9.7248 10.7537 9.69043 10.6173 9.89388C10.4826 10.0973 10.0901 10.5541 9.96984 10.6905C9.85065 10.8263 9.73147 10.8435 9.52692 10.7431C9.32237 10.64 8.6627 10.4272 7.88108 9.73589C7.27296 9.19707 6.8622 8.53352 6.74357 8.33008C6.62328 8.12719 6.73137 8.01743 6.83282 7.91654C6.92428 7.82507 7.03737 7.67928 7.13992 7.5601C7.24248 7.44202 7.27629 7.35832 7.34447 7.2225C7.41155 7.08669 7.37774 6.96861 7.32729 6.86606C7.27629 6.76406 6.86774 5.76625 6.69645 5.35991C6.52627 4.95414 6.35608 5.02121 6.23635 5.02121C6.11716 5.02121 5.98079 5.00458 5.84443 5.00458C5.70806 5.00458 5.48632 5.05392 5.29951 5.25736C5.11269 5.4608 4.58385 5.9514 4.58385 6.95032C4.58385 7.95035 5.31614 8.91435 5.41869 9.04961C5.5218 9.18432 6.83448 11.3013 8.91382 12.114C10.9943 12.9261 10.9943 12.6551 11.369 12.6207C11.7448 12.5863 12.5797 12.1301 12.7493 11.6567C12.92 11.1811 12.92 10.7736 12.8685 10.6888Z" fill="black"/>
</svg>
