<svg width="20" height="20" viewBox="0 0 20 20" fill="none" xmlns="http://www.w3.org/2000/svg">
<path d="M19.9838 10.0004C19.9838 8.64542 19.3888 7.36709 18.3796 6.56376C18.4963 5.21209 18.0129 3.88792 17.0546 2.92876C16.0963 1.97126 14.7763 1.48626 13.4904 1.63292C11.8121 -0.497077 8.18626 -0.53791 6.54709 1.60376C5.19376 1.48709 3.87042 1.96959 2.91209 2.92876C1.95376 3.88709 1.47126 5.21209 1.61626 6.49292C-0.512911 8.17126 -0.554577 11.7979 1.58709 13.4363C1.47042 14.7879 1.95376 16.1129 2.91209 17.0713C3.87042 18.0304 5.19876 18.5146 6.47626 18.3671C8.15542 20.4971 11.7804 20.5379 13.4204 18.3963C14.7688 18.5121 16.0954 18.0304 17.0546 17.0713C18.0121 16.1129 18.4954 14.7879 18.3504 13.5071C19.3888 12.6338 19.9838 11.3554 19.9838 10.0004ZM10.8171 14.1671V15.0004C10.8121 16.0904 9.15542 16.0896 9.15042 15.0004V14.1671H8.92709C7.82792 14.2713 5.78792 12.7963 7.06626 11.7796C7.46376 11.5488 7.97376 11.6854 8.20459 12.0838C8.35292 12.3404 8.63042 12.5004 8.92709 12.5004H10.8171C11.6479 12.5546 12.0188 11.2088 11.1138 11.0338L8.57876 10.6113C5.66126 10.0696 6.28959 5.81709 9.14959 5.83376V5.00042C9.15459 3.91042 10.8113 3.91126 10.8163 5.00042V5.83376H11.0396C11.9288 5.83376 12.7588 6.31292 13.2046 7.08376C13.4354 7.48209 13.2988 7.99126 12.9013 8.22209C12.5013 8.45209 11.9913 8.31626 11.7629 7.91792C11.6138 7.66042 11.3371 7.50126 11.0404 7.50126H9.15042C8.31959 7.44709 7.94792 8.79292 8.85376 8.96792L11.3879 9.39042C14.3063 9.93126 13.6779 14.1838 10.8171 14.1671Z" fill="#5C6597"/>
</svg>
