<svg width="22" height="20" viewBox="0 0 22 20" fill="none" xmlns="http://www.w3.org/2000/svg">
<path fill-rule="evenodd" clip-rule="evenodd" d="M12.1803 0.000124631H12.2021C12.3231 0.000103298 12.4173 9.25427e-05 12.5065 0.00548987C13.6377 0.0740019 14.6281 0.787911 15.0508 1.83933C15.0843 1.92267 15.1395 2.08819 15.1788 2.20626L15.1829 2.21867C15.2929 2.51725 15.4915 2.77585 15.7214 2.96049C15.964 2.96834 16.1958 2.97847 16.4173 2.99154C18.1709 3.09499 19.2837 3.38276 20.084 4.18314C20.345 4.44411 20.5515 4.7383 20.7148 5.07708C20.6534 5.09804 20.5936 5.12686 20.5367 5.16385C18.2964 6.62004 16.8888 7.53087 15.7193 8.11517C15.6484 7.74589 15.3236 7.46688 14.9336 7.46688C14.4918 7.46688 14.1336 7.82506 14.1336 8.2669V8.75532C11.8729 9.43756 9.46107 9.43756 7.20027 8.75532V8.2669C7.20027 7.82506 6.84208 7.46688 6.40027 7.46688C6.01029 7.46688 5.68549 7.74594 5.61467 8.11526C4.44507 7.53095 3.03749 6.6201 0.797068 5.16385C0.740215 5.12693 0.680481 5.09814 0.619255 5.07719C0.78256 4.73836 0.989067 4.44413 1.25008 4.18314C2.0504 3.38276 3.16325 3.09499 4.91685 2.99154C5.12709 2.97913 5.34661 2.96937 5.57595 2.9617C5.59035 2.94994 5.60485 2.93779 5.61936 2.92525C5.87611 2.70343 6.07685 2.41091 6.17808 2.13653L6.18139 2.12646C6.21968 2.0116 6.24944 1.9222 6.28283 1.83933C6.70544 0.787911 7.69595 0.0740019 8.82715 0.00548987C8.91632 9.25427e-05 9.01051 0.000103298 9.13157 0.000124631H12.1803ZM7.6616 2.73686L7.6664 2.7254L7.67163 2.71251L7.67653 2.69976L7.68037 2.68916L7.68229 2.68381L7.68677 2.67077L7.69083 2.65873L7.69307 2.65204L7.69605 2.64314L7.6984 2.63563L7.70032 2.62956C7.74235 2.50368 7.75525 2.4663 7.76731 2.43612C7.95941 1.95821 8.40965 1.6337 8.92379 1.60257C8.95824 1.60049 9.00048 1.60012 9.15333 1.60012H12.1803C12.3332 1.60012 12.3754 1.60049 12.4098 1.60257C12.9239 1.6337 13.374 1.95811 13.5662 2.4359L13.569 2.44335L13.5775 2.46674C13.5846 2.48657 13.5932 2.51137 13.6032 2.54045C13.6208 2.59206 13.6406 2.65128 13.6606 2.71144L13.6626 2.71775L13.665 2.72525L13.6679 2.73414L13.6701 2.74083L13.6742 2.75288L13.6787 2.76594L13.6806 2.77128L13.6845 2.78189L13.6894 2.79465L13.6946 2.80758L13.699 2.81815L13.6997 2.81971C13.7146 2.85795 13.7303 2.8961 13.7469 2.93414C13.4444 2.93346 13.1291 2.93346 12.8004 2.93346H8.53371C8.20144 2.93346 7.88293 2.93346 7.57744 2.93416C7.60784 2.86899 7.63589 2.80315 7.6616 2.73686Z" fill="#5C6597"/>
<path d="M21.1606 6.66626C21.3335 7.84363 21.3335 9.38614 21.3335 11.4666C21.3335 15.4893 21.3335 17.5006 20.0838 18.7503C18.8341 19.9999 16.8228 19.9999 12.8002 19.9999H8.5335C4.51089 19.9999 2.49947 19.9999 1.24987 18.7503C0.000165939 17.5006 0.000165939 15.4893 0.000165939 11.4666C0.000165939 9.38625 0.000165939 7.84381 0.173073 6.66647C2.60145 8.24496 4.15793 9.25164 5.60006 9.87158V10.4C5.60006 10.8418 5.95825 11.2 6.40006 11.2C6.83601 11.2 7.19057 10.8513 7.19984 10.4175C9.47216 11.0165 11.8613 11.0165 14.1336 10.4175C14.1429 10.8512 14.4974 11.2 14.9334 11.2C15.3752 11.2 15.7334 10.8418 15.7334 10.4V9.87148C17.1756 9.25153 18.7321 8.24481 21.1606 6.66626Z" fill="#5C6597"/>
</svg>
