<svg width="20" height="20" viewBox="0 0 20 20" fill="none" xmlns="http://www.w3.org/2000/svg">
<path d="M17.5823 16.5212C19.0895 14.7704 20.0006 12.4918 20.0006 10.0003C20.0006 7.50882 19.0895 5.23017 17.5823 3.47937L13.3096 7.75207C13.7457 8.39279 14.0007 9.16678 14.0007 10.0003C14.0007 10.8338 13.7457 11.6078 13.3096 12.2485L17.5823 16.5212Z" fill="#5C6597"/>
<path d="M16.5218 17.5815C14.771 19.0888 12.4924 19.9999 10.0009 19.9999C7.50943 19.9999 5.23078 19.0888 3.47998 17.5815L7.75268 13.3088C8.3934 13.7449 9.16739 13.9999 10.0009 13.9999C10.8344 13.9999 11.6084 13.7449 12.2491 13.3088L16.5218 17.5815Z" fill="#5C6597"/>
<path d="M2.41839 16.5212L6.69109 12.2485C6.25492 11.6078 5.99997 10.8338 5.99997 10.0003C5.99997 9.16678 6.25492 8.39279 6.69109 7.75207L2.41839 3.47937C0.911136 5.23017 0 7.50882 0 10.0003C0 12.4918 0.911136 14.7704 2.41839 16.5212Z" fill="#5C6597"/>
<path d="M10.0009 6.0001C9.16739 6.0001 8.3934 6.25504 7.75268 6.69121L3.47998 2.41851C5.23078 0.911258 7.50943 0.00012207 10.0009 0.00012207C12.4924 0.00012207 14.771 0.911258 16.5218 2.41851L12.2491 6.69121C11.6084 6.25504 10.8344 6.0001 10.0009 6.0001Z" fill="#5C6597"/>
</svg>
