<svg width="20" height="21" viewBox="0 0 20 21" fill="none" xmlns="http://www.w3.org/2000/svg">
<g clip-path="url(#clip0_43_2065)">
<g clip-path="url(#clip1_43_2065)">
<g clip-path="url(#clip2_43_2065)">
<path d="M3.38996 16H16.4366C16.8382 16 17.2338 15.9033 17.59 15.7181C17.9463 15.5328 18.2527 15.2645 18.4833 14.9358C18.7139 14.6071 18.8619 14.2277 18.9149 13.8297C18.9678 13.4316 18.9241 13.0267 18.7875 12.6492L16.4108 6.07833C16.0049 4.61809 15.1319 3.33099 13.9252 2.41389C12.7186 1.49679 11.2447 1.00018 9.72913 1C8.1514 0.999975 6.62083 1.53799 5.39013 2.52521C4.15944 3.51244 3.3022 4.88984 2.95996 6.43L1.00162 12.7633C0.886325 13.1372 0.860404 13.533 0.925949 13.9188C0.991493 14.3045 1.14667 14.6695 1.379 14.9844C1.61133 15.2992 1.91432 15.5551 2.26359 15.7315C2.61287 15.9079 2.99867 15.9999 3.38996 16Z" fill="#5C6597"/>
<path d="M5.91602 17.6665C6.10728 18.6084 6.61829 19.4552 7.36247 20.0635C8.10664 20.6717 9.03822 21.004 9.99935 21.004C10.9605 21.004 11.8921 20.6717 12.6362 20.0635C13.3804 19.4552 13.8914 18.6084 14.0827 17.6665H5.91602Z" fill="#5C6597"/>
</g>
</g>
</g>
<defs>
<clipPath id="clip0_43_2065">
<rect width="20" height="20" fill="white" transform="translate(0 1)"/>
</clipPath>
<clipPath id="clip1_43_2065">
<rect width="20" height="20" fill="white" transform="translate(0 1)"/>
</clipPath>
<clipPath id="clip2_43_2065">
<rect width="20" height="20" fill="white" transform="translate(0 1)"/>
</clipPath>
</defs>
</svg>
