<svg width="19" height="20" viewBox="0 0 19 20" fill="none" xmlns="http://www.w3.org/2000/svg">
<path d="M16.7364 10C16.7364 9.21154 16.6062 8.45451 16.3659 7.74461L19 6.24625L17.5556 3.77089L14.9172 5.27068C13.8954 4.13227 12.5118 3.31667 10.9473 3.001V0H8.05271V3.001C6.48675 3.31667 5.10459 4.13227 4.0828 5.27068L1.44439 3.77089L0 6.24625L2.63406 7.74461C2.39381 8.45451 2.26356 9.21154 2.26356 10C2.26356 10.7885 2.39381 11.5455 2.63406 12.2554L0 13.7537L1.44439 16.2291L4.0828 14.7293C5.10459 15.8677 6.48819 16.6833 8.05271 16.999V20H10.9473V16.999C12.5133 16.6833 13.8954 15.8677 14.9172 14.7293L17.5556 16.2291L19 13.7537L16.3659 12.2554C16.6062 11.5455 16.7364 10.7885 16.7364 10ZM9.5 14.2851C7.10619 14.2851 5.15814 12.3625 5.15814 10C5.15814 7.63748 7.10619 5.7149 9.5 5.7149C11.8938 5.7149 13.8419 7.63748 13.8419 10C13.8419 12.3625 11.8938 14.2851 9.5 14.2851Z" fill="#5C6597"/>
</svg>
